<svg xmlns="http://www.w3.org/2000/svg" width="3475" height="570" fill="none" viewBox="168 147 3475 570"><mask id="a" width="3475" height="570" x="168" y="147" fill="#000" maskUnits="userSpaceOnUse"><path fill="#fff" d="M168 147h3475v570H168z"/><path d="M408 685q-30 0-47-16-18-18-17-50V427l3 11 10 25 13 35-9-13-23-33-66-95-63-91q-12-18-10-37 2-20 17-35t43-15q20 0 36 10 16 9 30 32l7 10 18 27 73 107h-25l7-11 42-61 23-35 19-28 7-10q14-23 30-32 15-9 36-9 27 0 41 14 15 13 16 33 2 20-13 41l-9 13a2644 2644 0 0 1-88 127l-54 78-8 13 3-11 18-49 5-11v192q0 66-65 66m255 0q-33 0-48-22-16-23 0-56l7-15a13351 13351 0 0 0 159-344l8-16q13-28 31-40 18-13 43-13 23 0 42 13 18 13 30 40l28 59 59 128 88 188q16 34 1 57-14 21-46 21-28 0-44-12-14-13-26-41l-4-9-9-22-12-26-13-32 41 31 8 5H718l7-5 42-31-4 9-30 71-3 9q-14 28-26 41-14 12-41 12m198-365-5 10-11 28-34 80-15 38-12 27-4 11-5-9-10-16-5-9h204l-5 9-10 16-5 9-4-11-12-27-16-38-33-80-12-28-4-10zm380 365q-60 0-60-61V243q0-31 15-47 15-17 41-17 22 0 35 9 13 8 28 28l34 43a4251 4251 0 0 1 118 146l60 77 10 11h-20V239q0-28 16-44 14-15 44-16 28 0 44 16 15 16 15 44v388q0 27-14 43-14 15-38 15t-37-8-29-28l-10-11-25-32-76-96-102-127-9-12h20v253q0 61-60 61m500 0q-33 0-48-22-15-23 0-56l7-15a11974 11974 0 0 0 160-344l7-16q13-28 31-40 19-13 43-13t42 13 31 40l27 59 59 128 88 188q16 34 1 57-13 21-46 21-28 0-43-12-15-13-27-41l-4-9-20-48-14-32 42 31 7 5h-288l7-5 35-25 8-6-5 9-30 71-3 9q-13 28-26 41-13 12-41 12m198-365-4 10-12 28-33 80-16 38-12 27-4 11-5-9-9-16-5-9h203l-5 9-14 25-5-11-12-27-15-38-34-80-12-28-4-10zm385 365q-31 0-48-16-17-18-17-49V245q0-32 17-49t48-17 47 17 17 49v375q0 65-64 65m211-2q-33 0-51-19a70 70 0 0 1-18-49q0-30 18-49 18-18 51-19 33 0 50 19 18 19 18 49t-18 49q-17 19-50 19m337 4a449 449 0 0 1-165-34q-19-9-27-24-8-16-5-32 2-17 12-29 9-13 26-18 15-5 36 4 27 13 60 21 34 6 63 6 46 0 65-12 18-12 18-31 0-15-13-26-12-10-45-16l-13-3-29-6-28-6-12-3q-67-14-100-49-33-34-33-90 0-49 26-85t73-56 109-20a332 332 0 0 1 139 32q21 11 26 31 6 19-1 37t-25 27-45-3q-21-9-46-14-24-4-49-4-39 0-60 13-21 14-21 36 0 15 12 25 14 9 45 17l81 17q68 15 102 48 33 34 33 88 0 48-25 84-27 36-73 55-47 20-111 20m344-2q-30 0-47-16-17-18-17-49V245q0-32 17-49t47-17q32 0 48 17 17 17 17 49v131h203V245q0-32 17-49t48-17q63 0 63 66v375q0 65-63 65-65 0-65-65V482h-203v138q0 65-65 65"/></mask><path fill="#1f5fd6" d="m361 669-22 20v1h1zm-17-242 28-9-58 9zm3 11-28 9v2zm10 25-28 11zm9 24-28 9v2zm4 11-24 17 52-28zm-9-13-25 17h1v1zm-23-33-25 17h1v1zm-31-45-25 16v1zm-35-50-24 17zm-31-45-25 17 1 1zm-23-33-25 16v1zm-9-13 25-17zm-10-37-30-3v1zm17-35-21-22-1 1zm79-5-16 25v1h1zm30 32-26 15 1 1zm7 10 25-17zm18 27-25 17zm24 35 25-17zm24 35-25 16v1zm18 26-25 17zm7 11v30h56l-31-47zm-25 0-25-17-31 47h56zm7-11-25-16zm18-26 24 17 1-1zm24-35 24 17v-1h1zm23-35 25 17v-1zm19-28-25-16zm7-10 25 16zm30-32-16-26zm77 5-20 22zm16 33-30 1v1zm-13 41 25 18v-1zm-9 13-24-18v1h-1zm-22 33-25-17zm-32 45-24-18v1zm-34 49-25-17zm-31 45 25 17zm-23 33-24-17h-1zm-8 13-29-10 54 26zm3-11-28-10v1zm9-24-28-11zm9-25-28-10v1zm5-11h30l-59-11zm-65 258v-30q-20-1-27-8l-20 22-21 21q28 26 68 25zm-47-16 21-21q-7-6-8-29h-60q-1 40 25 70zm-17-50h30v-14h-60v14zm0-14h30v-36h-60v36zm0-36h30v-46h-60v46zm0-46h30v-46h-60v46zm0-46h30v-36h-60v36zm0-36h30v-14h-60v14zm0-14-29 9v1l4 10 28-9 29-9-1-1v-3h-1q1-1 0 0v-3h-1v-4h-1zm3 11-28 11 10 25 28-11 28-11-10-25zm10 25-28 11 9 22 28-9 29-9-10-27zm9 24-28 11 3 8 1 2v1h1l27-11 28-11v-2h-1v-2l-1-2-2-5zm4 11 25-18h-1v-1l-1-1v-1h-1l-2-4-1-1-1-1-1-2-1-1-25 17-24 18 4 5 1 1v1l2 2 1 2 1 1zm-9-13 25-17-24-33-24 17-24 18 22 32zm-23-33 25-16-32-47-24 18-25 17 31 45zm-31-45 25-17-35-50-25 17-24 17 34 49zm-35-50 25-17-32-45-24 17-24 18 31 44zm-31-45 25-16-24-35-24 18-25 17 23 33zm-23-33 25-17h-1v-2l-1-1-1-1-1-1v-1l-1-2h-1v-1h-1v-1l-1-1v-1h-1v-1l-25 17-25 17h1l1 3 3 4 4 5zm-9-13 25-17q-6-9-5-18l-30-2-30-2q-3 30 16 56zm-10-37 30 3q0-10 8-17l-21-21-22-21a86 86 0 0 0-25 53zm17-35 20 22q4-6 23-7v-60q-37 0-64 23zm43-15v30q13 0 20 5l16-25 16-25a95 95 0 0 0-52-15zm36 10-15 26q8 4 19 21l26-15 25-16q-16-28-40-42zm30 32-25 16v1l2 2 1 1 1 2v1h1v1l2 3 25-17 25-17h-1q0-1 0 0v-1l-1-1v-1q0 1 0 0h-1q0-1 0 0v-1l-1-2h-1v-1q0-1 0 0v-1h-1v-1q-1 1 0 0h-1q0-1 0 0v-1zm7 10-25 17 18 27 25-17 25-16-18-28zm18 27-25 17 24 35 25-17 25-17-24-35zm24 35-25 17 24 34 25-16 25-17-24-35zm24 35-25 17 18 26 25-17 25-16-19-28zm18 26-25 17 1 1 1 1v1l1 1 2 4 1 2h1l25-16 25-17q-1 0 0 0h-1v-2h-1v-1h-1v-1l-1-2-2-2v-1l-1-1zm7 11v-30h-6v60h6zm-6 0v-30h-13v60h13zm-13 0v-30h-6v60h6zm-6 0 25 16v-1h1v-1h1v-2h1v-1l1-1v-1h1v-1l1-1v-1h1l-25-17-25-16h-1v1h-1v2h-1v1h-1v2h-1v1h-1v2h-1v1zm7-11 25 17 17-26-24-17-25-18-18 28zm18-26 25 16 23-34-24-17-25-17-24 35zm24-35 25 16 23-34-25-17-24-18-24 36zm23-35 25 16 19-27-25-17-25-16-19 27zm19-28 25 17v-1l1-2 2-2 1-1v-1l1-1v-1h1v-1h1v-1l-25-16-25-17-1 1-1 2-5 8zm7-10 25 16q12-18 20-22l-15-26-16-26q-23 15-39 41zm30-32 15 26q8-5 21-5v-60q-27 0-52 13zm36-9v30q19 1 21 6l20-22 21-23a89 89 0 0 0-62-21zm41 14-20 22q6 4 6 12l30-1 30-1q-1-32-25-55zm16 33-30 2q1 9-8 23l25 16 25 17q19-27 18-60zm-13 41-24-17-1 1v1h-1v1l-3 4-4 5 24 18 24 18 3-3 1-3 2-2 1-2 2-2v-1h1zm-9 13-25-17-22 33 25 17 24 17 23-33zm-22 33-25-17-31 44 24 18 25 17 31-45zm-32 45-24-17-35 49 25 17 25 18 34-50zm-34 49-25-17-31 45 25 17 25 17 31-45zm-31 45-25-17-22 33 24 17 24 18 24-34zm-23 33-25-17-2 3-1 2v1h-1v1h-1v1l-1 1v1l-2 2v1l25 17 25 16 1-1 1-2v-1q1 1 0 0h1q-1 0 0 0v-1q1 0 0 0 1-1 0 0l1-1v-1q1 0 0 0h1q-1-1 0 0v-1q1-1 0 0l1-1q-1 1 0 0l1-2 1-1zm-8 13 28 9 1-1v-1l3-8-29-10-28-9-1 1v1q0 1 0 0v1l-1 1-1 4v1h-1v1zm3-11 28 11 9-25-28-10-28-11-9 25zm9-24 28 11 10-26-29-10-28-9-9 23zm9-25 28 11h1v-3h1v-3h1v-2h1v-3h1l-28-11-29-11v3h-1v3h-1v2h-1v3h-1v1zm5-11h-30v14h60v-14zm0 14h-30v36h60v-36zm0 36h-30v46h60v-46zm0 46h-30v46h60v-46zm0 46h-30v36h60v-36zm0 36h-30v14h60v-14zm0 14h-30c0 18-5 25-8 29q-3 6-27 7v60c26 0 52-7 70-25q26-30 25-71zm142 44 24-17zm0-56 27 12zm7-15-27-13h-1zm20-43 27 13v-1zm28-60 27 12zm32-70-28-12zm32-68 27 12zm28-60 27 12zm19-43-27-13zm8-16 27 13v-1zm31-40-17-25zm85 0 17-25zm30 40 28-12v-1zm7 16-27 12v1zm21 43-28 12h1zm28 60-28 12zm31 68-27 13zm32 70-27 12zm28 60-27 12v1zm20 43-28 11 1 1v1zm8 15 27-13-1-1zm1 57-25-17zm-90 9-19 22v1zm-26-41 27-12zm-4-9-28 11v2zm-9-22-28 12zm-12-26-27 11zm-9-23-28 11v2zm-4-9 19-23-87-69 40 103zm7 6-19 23 2 1 1 1zm18 12-19 24h1v1zm16 13-18 23 1 1 1 1zm8 5v30h103l-87-55zm-288 0-18-25-78 55h96zm7-5 17 25v-1zm17-13 18 25zm18-12 17 24zm7-6 28 13 48-105-93 68zm-4 9-27-12-1 1v1zm-9 23 27 12h1v-1zm-11 26 27 11zm-10 22-27-13-1 1v1zm-3 9 27 12 1-1zm-26 41-21-22zm157-353v-30h-19l-8 17zm-5 10-27-12-1 1zm-11 28 28 12zm-16 38-28-12v1zm-18 42-27-12zm-15 38 28 12v-1zm-12 27-27-12-1 1zm-4 11-26 15 31 53 23-57zm-5-9-26 16zm-10-16 26-16zm-5-9v-30h-52l26 45zm204 0 26 15 26-45h-52zm-5 9 26 15zm-10 16 26 16zm-5 9-27 12 24 52 29-49zm-4-11-28 11v2zm-12-27-28 11v2zm-16-38-28 11zm-17-42-28 11v1zm-16-38-28 12v1zm-12-28-28 12 1 1zm-4-10 27-11-7-19h-20zM663 685v-30q-19-1-24-9l-24 17-25 17c17 25 44 35 73 35zm-48-22 24-17c-2-3-5-10 3-27l-27-12-28-13c-12 29-15 59 3 86zm0-56 27 12v-1h1v-2h1v-2h1v-2h1v-2l1-1v-2h1v-2h1v-1l-27-12-28-13v2h-1v2h-1v2l-1 1v2h-1v2h-1v2h-1v2h-1zm7-15 27 12 20-42-27-13-27-13-20 43zm20-43 27 12 28-60-27-12-27-13-28 60zm28-60 27 12 32-69-27-13-28-12-31 69zm32-70 27 13 32-69-27-12-27-13-33 69zm32-68 27 12 28-60-27-12-27-13-29 60zm28-60 27 12 20-43-28-12-27-13-20 43zm19-43 27 13 2-4 2-3v-2h1v-1l1-1v-1l1-2 1-1v-1l-27-13-27-13-1 1v1l-1 1v1l-1 2-1 3h-1q0 1 0 0v2h-1v1l-1 2-1 2zm8-16 27 12q10-21 21-28l-17-24-17-25q-27 19-41 52zm31-40 16 25q11-8 27-8v-60q-33 0-60 18zm43-13v30q15 0 24 7l18-24 17-25q-27-18-59-18zm42 13-18 24q11 7 21 28l27-12 28-13q-15-33-41-52zm30 40-27 12v1l2 3 1 2v1q0-1 0 0 0-1 0 0l1 2 1 3 2 4 27-12 28-12v-1q-1 0 0 0h-1v-1l-2-4v-1l-1-1v-2l-1-1v-1l-1-1v-1q0 1 0 0l-1-1v-1zm7 16-27 13 20 42 28-12 27-13-21-44zm21 43-27 12 27 60 28-12 27-13-28-60zm28 60-28 12 32 69 27-13 27-12-31-69zm31 68-27 13 32 69 27-12 28-13-33-69zm32 70-27 12 28 60 27-12 28-13-28-60zm28 60-27 13 19 41 28-11 27-12q-6-17-20-44zm20 43-27 13 6 11 1 2v2h1l27-13 26-14-3-6q1 1 0 0 0-1 0 0v-1h-1v-1q0-1 0 0 0-1 0 0v-1q0 1 0 0h-1v-2q-1-1 0 0l-1-1q1 0 0 0v-1l-1-2zm8 15-28 13c9 17 6 24 4 27l25 17 25 16c18-27 14-58 1-86zm1 57-25-17c-3 4-7 8-21 8v60q45 1 71-35zm-46 21v-30q-21-1-25-6l-19 24-19 23q28 20 63 19zm-44-12 20-23q-8-5-19-30l-27 12-28 12q13 32 35 51zm-26-41 27-12v-2h-1v-2h-1v-2h-1v-1l-1-1v-2l-27 13-28 13 4 6v2l1 1zm-4-9 28-11-10-23-27 12-28 12 9 21zm-9-22 27-11-11-27-28 12-27 11 11 27zm-12-26 28-12-10-23-27 12-28 13 10 21zm-9-23 28-10v-1h-1v-2h-1v-3h-1v-2h-1v-2l-28 11-28 11v1h1v3h1v2h1v3h1zm-4-9-19 24h1v1h2v1h1v1h1v1h1v1h1l19-23 19-24h-1v-1h-2v-1h-1v-1h-1v-1h-1v-1h-1zm7 6-16 25 15 11 19-24 18-23-20-15zm18 12-18 25 16 11 18-23 19-23-18-14zm16 13-16 25 1 1h1l2 1 2 2 1 1h1l16-25 16-25v-1l-2-1h-1l-1-1-4-2zm8 5v-30h-16v60h16zm-16 0v-30h-41v60h41zm-41 0v-30h-56v60h56zm-56 0v-30h-62v60h62zm-62 0v-30h-57v60h57zm-57 0v-30h-41v60h41zm-41 0v-30h-15v60h15zm-15 0 17 24q1 0 0 0h1l1-1 2-1 3-2-17-25-18-25v1l-1 1-2 1h-1v1h-1l-1 1h-1zm7-5 17 24 18-12-18-25-17-24-18 13zm17-13 18 25 17-13-17-24-18-25-18 13zm18-12 17 24 1-1h1l2-1 2-2 1-1h1v-1q0 1 0 0l-18-24-17-24h-1l-1 1-6 5zm7-6-27-12-1 1v2q-1 0 0 0h-1v2h-1v1q0-1 0 0v1l-1 1q1 0 0 0v1l27 12 27 13 4-7v-2h1zm-4 9-28-10-9 21 28 12 28 11 9-23zm-9 23-27-12-12 26 28 12 27 11 11-25zm-11 26-28-12-9 21 27 13 27 13 10-24zm-10 22-28-11v1l-1 1v2q0-1 0 0l-2 3v2l28 11 28 11v-1q0-1 0 0v-1l1-2v-1l1-1v-1l1-1v-1zm-3 9-28-12q-12 25-19 31l21 22 20 21q20-18 33-50zm-26 41-21-22q0 3-20 4v60c22 0 45-5 61-21zm157-353-27-13v1h-1v2l-4 8 27 12 27 13 1-1 1-1v-1q0-1 0 0 0-1 0 0l1-2v-2h1v-1l1-1v-1zm-5 10-28-11-11 28 28 11 28 12 11-28zm-11 28-28-11-16 37 28 12 27 12 17-38zm-16 38-28-11-17 41 27 12 28 11 18-41zm-18 42-27-12-16 39 28 11 28 11 15-38zm-15 38-28-12-11 27 27 12 27 13 13-28zm-12 27-28-11-2 5v1q0-1 0 0v1l-1 1-1 2v1l28 11 28 11v-2q0 1 0 0h1q0-1 0 0v-1q0-1 0 0v-1l1-1v-1l1-1v-2l1-1v-1zm-4 11 26-15v-1l-1-1-1-2h-1v-2l-1-1-1-2-26 15-26 16 2 3 2 3v1h1v1zm-5-9 26-15-10-17-26 16-26 15 10 17zm-10-16 26-16-4-6v-1l-1-1-26 15-26 15 1 1 1 1 1 3 2 4zm-5-9v30h15v-60h-15zm15 0v30h38v-60h-38zm38 0v30h49v-60h-49zm49 0v30h50v-60h-50zm50 0v30h37v-60h-37zm37 0v30h15v-60h-15zm15 0-26-15v1h-1v1l-2 3-2 3 26 16 26 15 4-7 1-1v-1zm-5 9-26-16-10 17 26 15 26 16 10-17zm-10 16-26-15v2q-1-1 0 0h-1v1c-1 2 1-2 0 0q-1 1 0 0v1h-1q1-1 0 0 1 0 0 0v1c-1 2 1-2 0 0h-1v2q-1 0 0 0h-1q1 1 0 0 1 1 0 0 0 1 0 0v1q0-1 0 0-1 0 0 0 0 1 0 0v1q0-1 0 0l25 15 26 15 1-1 1-1v-1l1-1q0-1 0 0v-1c1-2-1 2 0 0l1-1v-1l1-1zm-5 9 28-13h-1q1 0 0 0v-1l-1-2v-1l-1-1v-2h-1v-1l-1-2-27 12-28 13 4 8 1 1v1zm-4-11 27-11-12-28-27 12-28 13 12 25zm-12-27 27-11-15-39-28 12-28 11 16 38zm-16-38 28-12-18-42-27 12-28 12 17 41zm-17-42 28-11-17-39-27 12-28 13 16 36zm-16-38 27-11q-6-18-12-29l-27 12-27 13 11 27zm-12-28 28-11-4-8v-2h-1l-27 11-28 11v2h1v3h1v1l2 5zm-4-10v-30h-1v60h1zm-1 0v-30h-1zv30h1zm334-124 22 21v-1zm76-8-17 25zm28 28 24-19h-1zm9 12-24 18 1 1zm25 31-24 18 1 1zm36 44-24 19zm40 51-23 19zm42 51 23-18zm35 45-24 18v1h1zm25 32-24 18 1 1zm10 11v30h66l-44-50zm-20 0h-30v30h30zm16-298 21 22v-1zm88 0-22 21 1 1zm1 475 22 20h1zm-104-21 23-19v-1h-1zm-10-11-24 18 1 1zm-25-32-24 18v1h1zm-35-45-24 19zm-41-51-24 19 1 1zm-41-51-24 19zm-36-45-24 19h1zm-25-31-24 18 1 1v1zm-9-12v-30h-61l37 48zm20 0h30v-30h-30zm-60 314v-30q-21-1-24-6-4-3-6-25h-60q-1 39 24 67 27 26 66 24zm-60-61h30v-16h-60v16zm0-16h30v-43h-60v43zm0-43h30v-61h-60v61zm0-61h30v-70h-60v70zm0-70h30v-70h-60v70zm0-70h30v-62h-60v62zm0-62h30v-43h-60v43zm0-43h30v-16h-60v16zm0-16h30q1-23 7-26l-22-21-21-21a95 95 0 0 0-24 68zm15-47 22 20q5-6 19-7v-60q-37 0-63 27zm41-17v30q17 0 18 4l17-25 16-25a92 92 0 0 0-51-14zm35 9-17 25q8 4 21 21l24-18 23-19q-16-22-35-34zm28 28-24 18h1v2h1v1h1v1h1v2h1v1h1v1h1v2h1v1h1v1l24-18 24-19h-1v-1h-1v-2h-1v-1h-1v-1h-1v-2h-1v-1h-1v-1h-1v-2h-1v-1zm9 12-23 19 24 30 24-18 24-18q-15-21-27-33zm25 31-23 19 35 44 24-19 23-19-36-44zm36 44-24 19 41 51 23-19 24-18-41-52zm40 51-23 19 41 51 24-19 23-18-41-52zm42 51-24 19 35 44 24-18 24-18-36-45zm35 45-23 19 24 31 24-18 24-19-26-32zm25 32-23 19 2 2 1 1v1h1v1h1l3 4 1 1 1 1v1l23-20 22-20v-1h-1v-1h-1v-1l-2-1-1-2-5-5zm10 11v-30h-5v60h5zm-5 0v-30h-10v60h10zm-10 0v-30h-5v60h5zm-5 0h30v-13h-60v13zm0-13h30v-37h-60v37zm0-37h30v-50h-60v50zm0-50h30v-53h-60v53zm0-53h30v-50h-60v50zm0-50h30v-37h-60v37zm0-37h30v-14h-60v14zm0-14h30q1-18 7-22l-21-22-22-21a89 89 0 0 0-24 65zm16-44 21 21q3-6 23-7v-60q-39-1-66 26zm44-16v30q19 1 22 7l22-21 21-20a88 88 0 0 0-65-26zm44 16-21 22q5 3 6 22h60q1-37-24-65zm15 44h-30v17h60v-17zm0 17h-30v44h60v-44zm0 44h-30v62h60v-62zm0 62h-30v71h60v-71zm0 71h-30v72h60v-72zm0 72h-30v62h60v-62zm0 62h-30v44h60v-44zm0 44h-30v16h60v-16zm0 16h-30q0 18-7 23l23 20 23 20q22-28 21-63zm-14 43-22-20q-3 5-16 5v60q35 1 60-25zm-38 15v-30q-19-1-21-3l-16 25-16 25q24 14 53 13zm-37-8 16-25q-7-5-22-22l-23 19-23 19q17 22 36 34zm-29-28 22-20v-1h-1v-1l-1-1-1-1-2-2-1-1-1-1-2-3-23 20-23 19 5 5 3 4 1 1 1 1v1zm-10-11 24-19-26-32-23 19-23 19 24 31zm-25-32 24-18-36-45-23 18-24 19 35 44zm-35-45 23-18-41-52-23 19-23 20 40 50zm-41-51 23-18-41-52-23 19-24 19 41 51zm-41-51 24-18-37-46-23 19-23 19 35 45zm-36-45 24-18-26-33-23 20-23 20 24 30zm-25-31 24-18v-1h-1v-1h-1v-1h-1v-2h-1v-1h-1v-1h-1v-2h-1v-1h-1v-1h-1v-1l-24 18-24 18v1h1v1h1v1h1v2h1v1h1v1h1v2h1v1h1v1h1v1zm-9-12v30h5v-60h-5zm5 0v30h10v-60h-10zm10 0v30h5v-60h-5zm5 0h-30v14h60v-14zm0 14h-30v36h60v-36zm0 36h-30v50h60v-50zm0 50h-30v54h60v-54zm0 54h-30v50h60v-50zm0 50h-30v36h60v-36zm0 36h-30v13h60v-13zm0 13h-30q-1 23-7 25-2 4-23 6v60q39 1 66-24 25-28 24-67zm392 39 25-17zm0-56 27 12zm7-15-27-13zm20-43 27 13h1v-1zm28-60 28 12zm32-70-27-12zm32-68 27 12zm28-60 27 12zm20-43-27-13h-1zm7-16 27 13 1-1zm31-40-16-25h-1zm85 0 17-25zm31 40 27-12v-1zm7 16-28 12 1 1zm20 43-27 12zm28 60-27 12zm31 68-27 13zm33 70-28 12h1zm28 60-28 12 1 1zm19 43-27 11v2zm8 15 27-13v-1zm1 57-25-17zm-89 9-20 22 1 1zm-27-41 28-12h-1zm-4-9-28 11v1l1 1zm-9-22-28 12zm-11-26-28 11zm-10-23-28 11v1l1 1zm-4-9 19-23-86-69 39 103zm7 6-18 23 1 1 1 1zm18 12-19 24h1v1zm17 13-19 23 1 1 2 1zm7 5v30h103l-87-55zm-288 0-17-25-78 55h95zm7-5 17 25v-1h1zm17-13 18 25zm18-12 17 24h1zm8-6 27 13 48-105-93 68zm-5 9-27-12v1l-1 1zm-9 23 28 12v-1zm-11 26 28 11zm-10 22-27-13v1l-1 1zm-3 9 27 12h1v-1zm-26 41-21-22zm157-353v-30h-19l-8 17zm-4 10-28-12v1zm-12 28 28 12zm-16 38-27-12v1zm-17 42-28-12zm-16 38 28 12v-1zm-12 27-27-12v1zm-4 11-26 15 31 53 23-57zm-5-9-26 16zm-9-16 26-16zm-5-9v-30h-53l27 45zm203 0 26 15 27-45h-53zm-5 9 26 15zm-9 16 26 16zm-5 9-27 12 24 52 29-49zm-5-11-28 11v1l1 1zm-12-27-28 11v1l1 1zm-15-38-28 11zm-18-42-28 11v1h1zm-16-38-28 12 1 1zm-12-28-28 12h1v1zm-4-10 28-11-8-19h-20zm-200 365v-30q-20-1-23-9l-25 17-25 17c17 25 44 35 73 35zm-48-22 25-17c-2-3-5-10 2-27l-27-12-27-13c-13 29-16 59 2 86zm0-56 27 12h1v-2h1v-2h1v-2l1-1v-2h1v-2h1v-2h1v-2l-27-12-27-13v1h-1v2h-1v2h-1v2h-1v2l-1 1v2h-1v2h-1v1zm7-15 27 12 20-42-27-13-27-13-20 43zm20-43 28 12 28-60-28-12-27-13-28 60zm28-60 28 12 31-69-27-13-27-12-32 69zm32-70 27 13 32-69-27-12-27-13-32 69zm32-68 27 12 28-60-27-12-27-13-28 60zm28-60 27 12 20-43-27-12-28-13-19 43zm20-43 27 13 2-4 1-3v-1h1v-2l1-1v-1h1v-2l1-1v-1l-27-13-27-13v1l-1 1v2h-1l-1 2-1 3q0 1 0 0v1h-1v2h-1v2l-1 2zm7-16 28 12q11-21 20-28l-17-24-17-25q-26 19-41 52zm31-40 17 25q11-8 26-8v-60q-33 0-59 18zm43-13v30q15 0 25 7l17-24 17-25q-27-18-59-18zm42 13-17 24q10 7 20 28l28-12 27-13q-14-33-41-52zm31 40-28 12h1v1l1 3 1 2v1q0-1 0 0 0-1 0 0l1 2 2 3 1 4 28-12 27-12v-1l-1-1v-2l-1-2h-1v-3l-1-1-1-1v-2h-1v-1q0 1 0 0v-1l-1-1zm7 16-27 13 20 42 27-12 27-13-20-44zm20 43-27 12 28 60 27-12 27-13-28-60zm28 60-27 12 31 69 27-13 28-12-32-69zm31 68-27 13 32 69 28-12 27-13-32-69zm33 70-27 12 27 60 28-12 27-13-28-60zm28 60-27 13 19 41 27-11 28-12-20-44zm19 43-27 13 7 14h1v1l27-13 27-14h-1l-2-6q0 1 0 0-1 0 0 0h-1v-2h-1q1-1 0 0 1-1 0 0v-1q0 1 0 0v-1h-1v-1q0-1 0 0l-1-1q1 0 0 0v-1l-1-2zm8 15-27 13c8 17 5 24 3 27l25 17 25 16c18-27 14-58 1-86zm1 57-25-17q-1 7-21 8v60q45 1 72-35zm-46 21v-30q-20-1-24-6l-19 24-19 23q27 20 62 19zm-43-12 19-23q-7-5-18-30l-28 12-27 12q12 32 34 51zm-27-41 27-12v-2l-1-1v-1l-1-2-1-1v-2h-1v-1l-27 13-27 13 3 6v1l1 1v1zm-4-9 28-11-10-23-27 12-28 12 9 21zm-9-22 28-11-12-27-27 12-28 11 11 27zm-11-26 27-12-10-23-27 12-27 13 9 21zm-10-23 28-10v-1l-1-1v-2h-1v-3h-1v-2h-1v-1l-28 11-28 11h1v3h1v2h1v3h1v1zm-4-9-18 24h1v1h1v1h1v1h1v1h2v1h1l18-23 19-24h-1v-1h-1v-1h-1v-1h-2v-1h-1v-1h-1zm7 6-16 25 15 11 19-24 18-23-20-15zm18 12-18 25 16 11 19-23 18-23-18-14zm17 13-16 25v1h1l2 1 2 2 1 1h1l16-25 16-25v-1l-1-1h-2l-1-1-3-2zm7 5v-30h-16v60h16zm-16 0v-30h-41v60h41zm-41 0v-30h-56v60h56zm-56 0v-30h-62v60h62zm-62 0v-30h-56v60h56zm-56 0v-30h-42v60h42zm-42 0v-30h-15v60h15zm-15 0 17 24h1q-1 0 0 0l1-1 2-1 3-2-17-25-17-25-1 1-1 1-1 1h-1l-1 1-2 1zm7-5 18 24 17-12-18-25-17-24-18 13zm17-13 18 25 17-13-17-24-17-25-18 13zm18-12 18 24 1-1 2-1 2-2h1v-1h1v-1q0 1 0 0l-17-24-18-24-2 1-6 5zm8-6-28-12v1l-1 1v1l-1 2v1h-1v2q-1 0 0 0h-1v1l27 12 28 13 3-7 1-2zm-5 9-28-10-8 21 27 12 28 11 9-23zm-9 23-27-12-11 26 27 12 28 11 11-25zm-11 26-27-12-10 21 27 13 28 13 10-24zm-10 22-28-11v2l-1 1v1q0-1 0 0l-1 3v1q-1 0 0 0h-1v1l28 11 28 11v-1q0-1 0 0l1-1v-2h1v-3h1v-2zm-3 9-27-12q-12 25-20 31l21 22 21 21q19-18 32-50zm-26 41-21-22c-1 1-5 4-20 4v60q36 1 62-21zm157-353-27-13v2h-1v1l-4 8 28 12 27 13v-1l1-1v-1q1-1 0 0 0-1 0 0l1-2 1-1v-2l1-1v-1h1zm-4 10-28-11-11 28 27 11 28 12 11-28zm-12 28-27-11-16 37 27 12 28 12 16-38zm-16 38-27-11-18 41 28 12 27 11 18-41zm-17 42-28-12-15 39 27 11 28 11 16-38zm-16 38-27-12-12 27 27 12 28 13 12-28zm-12 27-27-11-2 5-1 1q1-1 0 0v1l-1 1v2h-1v1l28 11 28 11v-1q1 0 0 0h1v-1q0 1 0 0v-1q1-1 0 0l1-1v-2h1v-2l1-1v-2zm-4 11 26-15v-1l-1-1-1-2v-1h-1v-1l-1-1-1-2-26 15-26 16 3 3 1 3 1 1v1zm-5-9 26-15-9-17-26 16-26 15 9 17zm-9-16 26-16-4-6-1-1v-1l-26 15-26 15v1l1 1 2 3 2 4zm-5-9v30h14v-60h-14zm14 0v30h38v-60h-38zm38 0v30h49v-60h-49zm49 0v30h50v-60h-50zm50 0v30h38v-60h-38zm38 0v30h14v-60h-14zm14 0-26-15v1q0-1 0 0v1h-1l-1 3-2 3 25 16 26 15 4-7 1-1v-1zm-5 9-25-16-10 17 26 15 26 16 9-17zm-9 16-26-15-1 1v1q0-1 0 0 0-1 0 0l-1 1c-1 2 1-2 0 0q0 1 0 0v1q0-1 0 0-1 0 0 0h-1q1 0 0 0v1c-1 2 1-2 0 0q-1 1 0 0v1h-1v1q0 1 0 0-1 1 0 0 0 1 0 0v1h-1q1-1 0 0 1 0 0 0 1 0 0 0 0 1 0 0v1q0-1 0 0l26 15 26 15v-1l1-1 1-1v-1q0-1 0 0v-1c2-2 0 2 1 0v-2l2-1zm-5 9 27-13v-1l-1-2-1-1v-1l-1-1v-1h-1v-1l-1-2-27 12-27 13 3 8h1v2h1zm-5-11 28-11-13-28-27 12-27 13 11 25zm-12-27 28-11-16-39-27 12-28 11 15 38zm-15-38 27-12-18-42-27 12-27 12 17 41zm-18-42 28-11-17-39-27 12-27 13 15 36zm-16-38 28-11-13-29-27 12-27 13 11 27zm-12-28 28-11-3-8-1-2-28 11-28 11v1l1 1v1l1 1v2l2 5zm-4-10v-30h-1zv30h1zm-1 0v-30h-1zv30h1zm336 349 21-22zm0-473-21-21zm95 0 21-21zm-47 489v-30q-22-1-27-8l-21 22-21 21q29 26 69 25zm-48-16 21-22q-7-4-8-27h-60q-1 40 26 70zm-17-49h30v-16h-60v16zm0-16h30v-43h-60v43zm0-43h30v-60h-60v60zm0-60h30v-68h-60v68zm0-68h30v-69h-60v69zm0-69h30v-60h-60v60zm0-60h30v-43h-60v43zm0-43h30v-16h-60v16zm0-16h30q1-23 8-28l-21-21-21-21a96 96 0 0 0-26 70zm17-49 21 21q5-7 27-8v-60q-40-1-69 26zm48-17v30q21 1 26 8l21-21 21-21a94 94 0 0 0-68-26zm47 17-21 21q7 5 8 28h60q1-42-26-70zm17 49h-30v16h60v-16zm0 16h-30v43h60v-43zm0 43h-30v60h60v-60zm0 60h-30v69h60v-69zm0 69h-30v68h60v-68zm0 68h-30v60h60v-60zm0 60h-30v43h60v-43zm0 43h-30v16h60v-16zm0 16h-30q-1 25-8 28-3 6-26 7v60q41 2 69-25 27-30 25-70zm96 44-22 21h1zm0-98 21 22 1-1zm101 0-22 21 1 1zm0 98-22-20zm-50 19v-30q-23 0-29-10l-22 21-21 21q29 29 72 28zm-51-19 22-20q-9-10-10-29h-60q0 40 26 70zm-18-49h30q1-20 9-27l-21-22-21-21a95 95 0 0 0-27 70zm18-49 22 21q6-9 29-10v-60q-43 0-72 28zm51-19v30q23 1 28 10l22-21 22-20a95 95 0 0 0-72-29zm50 19-21 22q8 7 9 27h60q1-41-27-70zm18 49h-30q0 19-10 29l22 20 22 21q26-30 26-70zm-18 49-22-20q-5 8-28 9v60q42 1 72-28zm199 14-6 29zm-77-25-13 27zm-27-24 27-14zm-5-32 30 4zm12-29 23 18h1v-1zm26-18 7 29h1zm36 4 13-26v-1h-1zm60 21-6 29h1zm128-6 16 25zm5-57-18 24v1zm-45-16-7 29zm-13-3-7 29h1zm-29-6-6 30h1zm-28-6-7 29zm-12-3 7-29h-1zm-100-49 22-20zm-7-175-25-18zm73-56 12 28zm183-12-7 29 1 1zm65 24-15 26h1zm26 31-29 8v1zm-1 37 28 11zm-25 27-13-28zm-45-3-12 27h1zm-46-14-6 30h1zm-109 9-16-26zm-9 61-18 23zm45 17 7-30zm12 2-7 30h1zm29 7-7 29h2zm28 5-7 29zm12 3-6 29zm110 220 24 17zm-73 55 11 28zm-111 20v-30q-40 0-82-9l-6 30-6 29q48 10 94 10zm-88-9 6-30q-42-9-70-22l-13 27-13 27q36 18 84 27zm-77-25 13-27q-11-6-13-11l-27 14-26 13q13 26 40 38zm-27-24 27-14q-3-8-2-14l-30-4-30-4q-3 26 9 49zm-5-32 30 4q0-9 5-15l-23-18-24-19a89 89 0 0 0-18 44zm12-29 24 17q3-5 9-6l-7-29-8-29q-26 7-42 29zm26-18 8 29q3-2 16 3l12-28 12-27q-27-13-57-5zm36 4-13 27q31 15 67 23l6-29 6-30q-29-6-53-17zm60 21-5 29q36 7 68 7v-60q-26 0-57-6zm63 6v30q49 1 81-17l-16-25-17-25q-5 6-48 7zm65-12 16 25q30-18 32-56h-60v1q0 2-5 5zm18-31h30q0-31-25-50l-18 24-18 25h1q2 2 0 0v1zm-13-26 19-23q-24-16-58-23l-6 30-7 29q31 7 34 11zm-45-16 6-30q-1 0 0 0h-1q1 0 0 0h-1q1 0 0 0h-1c-1-1 2 0 0 0q0-1 0 0-1-1 0 0l-1-1q0 1 0 0 0 1 0 0h-3q1 0 0 0h-1q0-1 0 0 0-1 0 0v-1q-1 1 0 0-1 0 0 0h-1q1 0 0 0h-2q-1 0 0 0h-1q0-1 0 0l-7 29-6 29q-1 0 0 0h1q-1 0 0 0v1h1q1 0 0 0h3q-1 0 0 0l2 1q1 0 0 0 1 0 0 0h1q-1 0 0 0-1 0 0 0h2l1 1q1 0 0 0h1zm-13-3 7-29-31-6-5 29-5 30 27 5zm-29-6 7-29-29-6-6 29-7 29 29 7zm-28-6 7-29h-1q1-1 0 0 0-1 0 0l-1-1q0 1 0 0 0 1 0 0h-1q1 0 0 0h-1l-2-1q-1 0 0 0h-1q1 0 0 0h-2l-1-1h-1q1 0 0 0h-1l-7 29-7 29q1 0 0 0h1l2 1h1q-1 0 0 0-1 0 0 0-1 0 0 0h1q-1 1 0 0v1q0-1 0 0h1q0-1 0 0 0-1 0 0 1 0 0 0 1 0 0 0h1q-1 0 0 0h1q1 0 0 0h1q0 1 0 0 0 1 0 0v1h1q0-1 0 0 1 0 0 0 1 0 0 0h1q-1 0 0 0-1 0 0 0h1zm-12-3 6-29q-61-14-84-40l-22 20-22 21q42 43 116 57zm-100-49 22-20a97 97 0 0 1-25-70h-60q0 65 41 111zm-33-90h30q0-40 20-67l-24-18-25-18q-31 46-31 103zm26-85 24 18q21-30 61-46l-12-28-11-28q-54 23-87 66zm73-56 12 28q41-18 97-18v-60q-66 0-121 23zm109-20v30q34 0 67 7l7-29 7-29q-41-9-81-9zm74 8-6 30q33 6 56 20l15-26 15-26q-33-19-74-27zm65 24-14 26q10 6 11 13l29-8 29-8q-10-33-41-49zm26 31-29 9q3 9 0 17l28 11 28 11q11-29 1-58zm-1 37-28-11q-2 7-10 10l13 28 13 27q29-14 40-43zm-25 27-13-28c-1 1-6 3-20-3l-12 28-11 27c22 9 46 13 69 3zm-45-3 12-28q-24-10-53-15l-5 29-5 30q23 3 39 11zm-46-14 6-29q-28-5-55-5v60q22 0 43 4zm-49-4v-30q-44-1-76 17l16 26 16 25q10-7 44-8zm-60 13-16-26a70 70 0 0 0-35 62h60q-2-5 7-11zm-21 36h-30q1 29 24 48l18-23 19-24-1-1zm12 25-18 23q23 16 57 23l6-29 7-30q-30-7-33-11zm45 17-7 29h3l2 1h2l1 1h1l3 1 7-30 7-29-9-2-2-1h-1zm12 2-6 30 28 6 7-29 6-30-28-6zm29 7-5 29 26 5 7-29 7-29-30-6zm28 5-7 29 10 3h3l6-29 7-29h-1q1 0 0 0l-1-1h-1l-4-1-6-1zm12 3-6 29q62 15 87 41l21-22 21-21q-43-41-116-56zm102 48-21 22q24 23 24 66h60q1-65-42-109zm33 88h-30q1 39-20 66l25 18 24 17q31-44 31-101zm-25 84-25-18q-19 29-60 45l12 28 11 28q54-22 86-66zm-73 55-12-28q-40 18-99 18v60q69 0 122-22zm186 2 21-22zm0-473-22-21zm95 0 21-21zm17 180h-30v30h30zm203 0v30h30v-30zm17-180-21-21zm-17 286h30v-30h-30zm-203 0v-30h-30v30zm-65 203v-30q-21-1-26-8l-21 22-22 21q29 26 69 25zm-47-16 21-22q-7-4-8-27h-60q-1 40 25 70zm-17-49h30v-16h-60v16zm0-16h30v-43h-60v43zm0-43h30v-60h-60v60zm0-60h30v-68h-60v68zm0-68h30v-69h-60v69zm0-69h30v-60h-60v60zm0-60h30v-43h-60v43zm0-43h30v-16h-60v16zm0-16h30q1-23 8-28l-21-21-22-21a96 96 0 0 0-25 70zm17-49 21 21q5-7 26-8v-60q-40-1-69 26zm47-17v30q21 1 27 8l21-21 21-21a94 94 0 0 0-69-26zm48 17-21 21q6 5 8 28h60q1-42-26-70zm17 49h-30v10h60v-10zm0 10h-30v24h60v-24zm0 24h-30v32h60v-32zm0 32h-30v31h60v-31zm0 31h-30v25h60v-25zm0 25h-30v9h60v-9zm0 9v30h11v-60h-11zm11 0v30h28v-60h-28zm28 0v30h40v-60h-40zm40 0v30h44v-60h-44zm44 0v30h40v-60h-40zm40 0v30h29v-60h-29zm29 0v30h11v-60h-11zm11 0h30v-9h-60v9zm0-9h30v-25h-60v25zm0-25h30v-31h-60v31zm0-31h30v-32h-60v32zm0-32h30v-24h-60v24zm0-24h30v-10h-60v10zm0-10h30q1-23 8-28l-21-21-21-21a96 96 0 0 0-26 70zm17-49 21 21q5-7 27-8v-60q-40-1-69 26zm48-17v30q23 1 26 8 6 3 7 28h60c0-26-6-52-24-70a93 93 0 0 0-69-26zm63 66h-30v16h60v-16zm0 16h-30v43h60v-43zm0 43h-30v60h60v-60zm0 60h-30v69h60v-69zm0 69h-30v68h60v-68zm0 68h-30v60h60v-60zm0 60h-30v43h60v-43zm0 43h-30v16h60v-16zm0 16h-30q-1 25-7 28-3 6-26 7v60q41 2 69-25 26-30 24-70zm-63 65v-30q-24-1-27-7-6-3-8-28h-60q-1 40 25 70 28 27 70 25zm-65-65h30v-10h-60v10zm0-10h30v-25h-60v25zm0-25h30v-34h-60v34zm0-34h30v-34h-60v34zm0-34h30v-26h-60v26zm0-26h30v-9h-60v9zm0-9v-30h-11v60h11zm-11 0v-30h-29v60h29zm-29 0v-30h-40v60h40zm-40 0v-30h-44v60h44zm-44 0v-30h-40v60h40zm-40 0v-30h-28v60h28zm-28 0v-30h-11v60h11zm-11 0h-30v9h60v-9zm0 9h-30v26h60v-26zm0 26h-30v34h60v-34zm0 34h-30v34h60v-34zm0 34h-30v25h60v-25zm0 25h-30v10h60v-10zm0 10h-30q-2 25-8 28-3 6-27 7v60c26 0 52-6 70-25q26-30 25-70z" mask="url(#a)"/><mask id="b" width="3431" height="526" x="190" y="169" fill="#000" maskUnits="userSpaceOnUse"><path fill="#fff" d="M190 169h3431v526H190z"/><path d="M408 685q-30 0-47-16-18-18-17-50V427l3 11 10 25 13 35-9-13-23-33-66-95-63-91q-12-18-10-37 2-20 17-35t43-15q20 0 36 10 16 9 30 32l7 10 18 27 73 107h-25l7-11 42-61 23-35 19-28 7-10q14-23 30-32 15-9 36-9 27 0 41 14 15 13 16 33 2 20-13 41l-9 13a2644 2644 0 0 1-88 127l-54 78-8 13 3-11 18-49 5-11v192q0 66-65 66m255 0q-33 0-48-22-16-23 0-56l7-15a13351 13351 0 0 0 159-344l8-16q13-28 31-40 18-13 43-13 23 0 42 13 18 13 30 40l28 59 59 128 88 188q16 34 1 57-14 21-46 21-28 0-44-12-14-13-26-41l-4-9-9-22-12-26-13-32 41 31 8 5H718l7-5 42-31-4 9-30 71-3 9q-14 28-26 41-14 12-41 12m198-365-5 10-11 28-34 80-15 38-12 27-4 11-5-9-10-16-5-9h204l-5 9-10 16-5 9-4-11-12-27-16-38-33-80-12-28-4-10zm380 365q-60 0-60-61V243q0-31 15-47 15-17 41-17 22 0 35 9 13 8 28 28l34 43a4251 4251 0 0 1 118 146l60 77 10 11h-20V239q0-28 16-44 14-15 44-16 28 0 44 16 15 16 15 44v388q0 27-14 43-14 15-38 15t-37-8-29-28l-10-11-25-32-76-96-102-127-9-12h20v253q0 61-60 61m500 0q-33 0-48-22-15-23 0-56l7-15a11974 11974 0 0 0 160-344l7-16q13-28 31-40 19-13 43-13t42 13 31 40l27 59 59 128 88 188q16 34 1 57-13 21-46 21-28 0-43-12-15-13-27-41l-4-9-20-48-14-32 42 31 7 5h-288l7-5 35-25 8-6-5 9-30 71-3 9q-13 28-26 41-13 12-41 12m198-365-4 10-12 28-33 80-16 38-12 27-4 11-5-9-9-16-5-9h203l-5 9-14 25-5-11-12-27-15-38-34-80-12-28-4-10zm385 365q-31 0-48-16-17-18-17-49V245q0-32 17-49t48-17 47 17 17 49v375q0 65-64 65m211-2q-33 0-51-19a70 70 0 0 1-18-49q0-30 18-49 18-18 51-19 33 0 50 19 18 19 18 49t-18 49q-17 19-50 19m337 4a449 449 0 0 1-165-34q-19-9-27-24-8-16-5-32 2-17 12-29 9-13 26-18 15-5 36 4 27 13 60 21 34 6 63 6 46 0 65-12 18-12 18-31 0-15-13-26-12-10-45-16l-13-3-29-6-28-6-12-3q-67-14-100-49-33-34-33-90 0-49 26-85t73-56 109-20a332 332 0 0 1 139 32q21 11 26 31 6 19-1 37t-25 27-45-3q-21-9-46-14-24-4-49-4-39 0-60 13-21 14-21 36 0 15 12 25 14 9 45 17l81 17q68 15 102 48 33 34 33 88 0 48-25 84-27 36-73 55-47 20-111 20m344-2q-30 0-47-16-17-18-17-49V245q0-32 17-49t47-17q32 0 48 17 17 17 17 49v131h203V245q0-32 17-49t48-17q63 0 63 66v375q0 65-63 65-65 0-65-65V482h-203v138q0 65-65 65"/></mask><path fill="#07101e" d="m361 669-6 5zm-17-242 7-2-15 2zm3 11-7 3zm10 25-7 3zm9 24-7 3zm4 11-6 4 14-7zm-9-13-6 5zm-23-33-7 5h1zm-31-45-7 4zm-35-50-6 5zm-31-45-7 5zm-23-33-7 4zm-9-13 7-4zm-10-37-8-1zm17-35-6-6zm79-5-5 7h1zm30 32-7 4zm7 10 7-4zm18 27-7 5zm24 35 6-5zm24 35-7 4zm18 26-7 5zm7 11v8h15l-8-13zm-25 0-7-5-8 13h15zm7-11-7-4zm18-26 6 4h1zm24-35 6 4zm23-35 7 4zm19-28-7-4zm7-10 6 4zm30-32-4-7zm77 5-5 5zm16 33h-8v1zm-13 41 7 5zm-9 13-6-5-1 1zm-22 33-7-5zm-32 45-6-5zm-34 49-7-4zm-31 45 7 5zm-23 33-6-5-1 1zm-8 13-8-3 14 7zm3-11-7-3v1zm9-24-7-3zm9-25-7-3v1zm5-11h8l-16-3zm-65 258v-8q-27 0-42-14l-5 6-6 5q21 19 53 19zm-47-16 5-6q-14-14-14-44h-16q0 34 19 55zm-17-50h8v-14h-16v14zm0-14h8v-36h-16v36zm0-36h8v-46h-16v46zm0-46h8v-46h-16v46zm0-46h8v-36h-16v36zm0-36h8v-14h-16v14zm0-14-8 2v2h1v3h1v1q0 1 0 0 0 1 0 0v1q0 1 0 0v1h1q-1 1 0 0v2l1 2 7-3 8-2-1-3v-1l-1-1-1-4v-2h-1zm3 11-7 3 10 25 7-3 7-3-9-25zm10 25-7 3 9 24 7-3 8-2-10-25zm9 24-7 3v1l1 2v1l1 1 1 4v1h1v1l7-3 8-3v-1l-1-1v-1l-1-1v-2h-1v-2l-1-1v-2zm4 11 7-5-1-1-1-2-2-2-1-2-2-3-2-3-7 5-6 5 4 5 1 1v2h1v1l1 1 1 1v1h1zm-9-13 7-4-23-33-7 4-6 5 23 33zm-23-33 7-4-32-46-6 5-7 4 31 46zm-31-45 6-5-34-50-7 5-6 5 34 49zm-35-50 7-5-32-44-6 4-7 5 32 45zm-31-45 7-4-24-34-6 5-7 4 23 34zm-23-33 6-5v-1h-1l-1-2v-1l-1-1-1-1-1-2-1-1v-1h-1v-2h-1l-7 4-6 4v1l1 1v1l1 1 1 1 1 3 1 1h1v2h1v1l1 1zm-9-13 7-4q-10-16-9-33h-8l-8-1q-1 23 12 42zm-10-37 8 1q2-18 14-30l-5-6-6-6a64 64 0 0 0-19 40zm17-35 5 6q13-12 38-13v-16q-31-1-49 17zm43-15v8q18 0 31 9l5-7 4-7q-18-11-40-11zm36 10-4 7q14 7 27 29l7-4 7-5a97 97 0 0 0-33-34zm30 32-7 4 1 1 1 2h1v1q0 1 0 0v1q1-1 0 0h1v1q1 0 0 0h1v1l1 1 1 2 7-4 7-4h-1v-1q0 1 0 0v-1h-1v-1h-1v-2h-1v-1h-1v-2q-1 0 0 0h-1v-1h-1v-2q0 1 0 0zm7 10-7 4 18 28 7-5 7-4-18-27zm18 27-7 5 24 34 7-4 6-5-23-34zm24 35-7 4 24 35 7-4 6-5-24-35zm24 35-7 4 18 27 7-5 7-4-19-27zm18 26-7 5q1-1 0 0h1v1l1 1v1q1 0 0 0h1v1l1 1v1h1v2h1v1h1v1l7-4 7-5h-1l-1-2-1-1v-1h-1v-2h-1v-1h-1v-1l-1-1v-1zm7 11v-8h-6v16h6zm-6 0v-8h-13v16h13zm-13 0v-8h-6v16h6zm-6 0 6 4h1v-2h1v-1h1v-2h1v-1h1v-2h1v-1h1v-1l-6-5-7-4-1 1v1h-1v1l-1 1v1h-1v2h-1v1h-1v2h-1zm7-11 6 5 18-27-6-4-7-5-18 27zm18-26 7 4 23-35-6-4-7-5-24 35zm24-35 6 4 24-35-7-4-6-5-24 35zm23-35 7 4 18-27-6-5-7-4-18 27zm19-28 6 5 1-1v-1h1v-1l1-2 1-1 1-1 1-1v-1l1-1v-1l-6-4-7-5v1l-2 2-1 1v2h-1v1h-1v1l-1 1v1h-1v1zm7-10 6 4q15-21 28-29l-4-7-4-7q-18 11-33 34zm30-32 4 7q13-8 32-8v-16q-23 0-40 10zm36-9v8q25 0 36 11l5-5 6-6a67 67 0 0 0-47-16zm41 14-5 5q12 12 13 28h16q-2-24-18-39zm16 33-8 1q1 17-11 36l6 4 7 5q15-23 14-46zm-13 41-6-4-1 1h-1v1q0 1 0 0v1h-1v1h-1v1l-1 2-4 5 6 5 7 5 1-2v-1h1v-1l1-1 1-1v-1h1v-1h1v-2l1-1 1-1 1-1zm-9 13-7-4-22 32 7 5 6 4 23-33zm-22 33-7-5-31 45 6 5 7 4 31-45zm-32 45-6-5-35 50 7 4 7 5 34-50zm-34 49-7-4-30 45 6 4 7 5 31-45zm-31 45-6-4-23 32 6 5 7 5 23-33zm-23 33-7-4q0 1 0 0v1q-1 0 0 0h-1v1q-1 1 0 0l-1 1q1-1 0 0v1h-1v1q0-1 0 0l-1 1v1h-1v1l-1 1v1h-1q1 1 0 0 0 1 0 0v1q-1 1 0 0l-1 1 7 5 6 4h1v-1q0 1 0 0v-1h1q0-1 0 0 0-1 0 0v-1q0 1 0 0l1-1v-1h1q-1 0 0 0v-1h1v-1q0 1 0 0l1-1v-1h1v-1q0-1 0 0v-1h1q-1 0 0 0 0-1 0 0v-1q1 0 0 0h1q-1-1 0 0zm-8 13 7 2 1-1v-1l1-4 1-1v-1q0 1 0 0v-1q0 1 0 0l1-1-8-3-7-2h-1q1 0 0 0v2l-1 1v2l-1 1v2l-1 2q0-1 0 0zm3-11 8 3 9-25-8-2-7-3-9 24zm9-24 8 3 9-25-8-3-7-2-9 24zm9-25 8 3v-2h1v-2h1v-3h1v-3h1v-1l-7-3-8-3v2h-1v2h-1v3h-1v3h-1v1zm5-11h-8v14h16v-14zm0 14h-8v36h16v-36zm0 36h-8v46h16v-46zm0 46h-8v46h16v-46zm0 46h-8v36h16v-36zm0 36h-8v14h16v-14zm0 14h-8q-1 31-14 44-13 14-43 14v16q35 0 54-19 19-20 19-55zm142 44 6-5zm0-56 7 3zm7-15-7-4h-1zm20-43 7 3zm28-60 7 3zm32-70-8-3zm32-68 7 3zm28-60 7 3zm19-43-7-4zm8-16 7 3zm31-40-5-7zm85 0 4-7zm30 40 8-3v-1zm7 16-7 3zm21 43-8 3zm28 60-8 3zm31 68-7 4zm32 70-7 3zm28 60-7 3zm20 43-7 3zm8 15 7-3v-1zm1 57-7-5zm-90 9-5 6zm-26-41 7-3zm-4-9-8 3zm-9-22-8 3v1zm-12-26-7 3zm-9-23-8 3v1zm-4-9 5-6-23-19 11 28zm7 6-5 6 1 1zm18 12-5 7zm16 13-5 6 1 1zm8 5v8h28l-24-15zm-288 0-5-7-21 15h26zm7-5 4 7v-1zm17-13 5 7zm18-12 4 6zm7-6 8 4 12-28-24 18zm-4 9-7-3zm-9 23 7 3zm-11 26 7 3zm-10 22-7-3zm-3 9 7 3zm-26 41-6-6zm157-353v-8h-5l-2 5zm-5 10-7-3zm-11 28 7 3zm-16 38-7-3zm-18 42-7-4v1zm-15 38 7 3zm-12 27-7-3zm-4 11-7 4 8 14 6-15zm-5-9-7 4zm-10-16 7-4zm-5-9v-8h-14l7 12zm204 0 7 4 7-12h-14zm-5 9 7 4zm-10 16 7 4zm-5 9-7 3 7 14 7-13zm-4-11-8 3v1zm-12-27-8 3zm-16-38-7 2zm-17-42-8 3zm-16-38-8 3v1zm-12-28-8 3v1zm-4-10 7-3-2-5h-5zM663 685v-8q-29 0-42-19l-6 5-7 4q19 27 55 26zm-48-22 6-5q-13-16 1-48l-7-3-8-3q-17 35 1 63zm0-56 7 3v-1h1v-2h1v-2h1v-2h1v-3h1v-2h1v-2h1v-1l-7-3-8-4v2h-1v2h-1v3h-1v2h-1v2h-1v2h-1v2h-1v1zm7-15 7 3 20-43-7-3-7-4-20 43zm20-43 7 3 28-60-7-3-7-4-28 60zm28-60 7 3 32-69-7-4-8-3-31 69zm32-70 7 4 32-69-7-3-8-4-32 69zm32-68 7 3 28-60-7-3-8-4-28 60zm28-60 7 3 20-43-8-3-7-4-20 43zm19-43 8 3v-2h1v-2h1v-1l1-2v-1h1v-2l1-1v-1l1-2 1-1v-1l-7-3-7-4v1h-1v1q0-1 0 0v1q-1-1 0 0h-1v2h-1v2h-1q1 0 0 0v1l-1 1v2l-1 1v1l-1 1v1l-1 1zm8-16 7 3q12-25 28-37l-4-6-5-7q-20 15-33 43zm31-40 4 6q17-11 39-11v-16q-27 0-48 14zm43-13v8q21 0 37 11l5-6 4-7q-20-14-46-14zm42 13-5 6q16 12 28 37l7-3 8-4q-13-28-34-43zm30 40-7 3v1l1 1q0 1 0 0v1h1v3h1l1 3v1h1v2l1 1v1l1 1v1l7-3 8-3-1-1v-2h-1v-2h-1v-2l-3-5-1-3v-1zm7 16-7 3 20 43 8-3 7-4-21-43zm21 43-8 3 28 60 8-3 7-4-28-60zm28 60-8 3 32 69 7-4 7-3-31-69zm31 68-7 4 32 69 7-3 8-4-33-69zm32 70-7 3 28 60 7-3 8-4-28-60zm28 60-7 3 20 43 7-3 7-4-19-43zm20 43-7 3q0 1 0 0v1q0-1 0 0 1 1 0 0 0 1 0 0l1 1q-1 0 0 0 0 1 0 0 0 1 0 0v1q0-1 0 0l1 1 1 3q1 1 0 0v1h1q-1-1 0 0v1q1 1 0 0l1 1v1l1 1v1l1 1v1l8-3 7-4-1-1-1-3h-1v-1q0 1 0 0 0 1 0 0v-1q0 1 0 0-1 0 0 0-1 0 0 0h-1v-1q0 1 0 0 0 1 0 0v-1h-1v-2q-1 0 0 0l-1-1q0-1 0 0 0-1 0 0v-1q0 1 0 0-1 0 0 0-1 0 0 0h-1v-2l-1-1zm8 15-8 3q14 32 2 49l7 5 7 4q17-27-1-64zm1 57-7-5q-11 18-39 18v16q36 0 53-25zm-46 21v-8q-26 0-39-10l-5 6-5 6q19 15 49 14zm-44-12 6-6q-13-11-25-38l-7 3-8 3q13 29 29 44zm-26-41 7-3v-2l-1-1-1-2-1-2-1-1v-1l-7 3-8 3 1 2 1 1v1l1 2 1 1v2h1zm-4-9 7-3-9-22-7 3-8 4 9 21zm-9-22 7-3-11-26-8 3-7 3 11 26zm-12-26 8-3-10-23-7 3-8 4 10 22zm-9-23 7-3v-1h-1v-2h-1v-3h-1v-3h-1l-7 3-7 3v3h1v2h1v3h1v1zm-4-9-5 6v1h1v1h2v1h1v1h1v1h1v1h1l5-6 5-6v-1h-1v-1h-2v-1h-1v-1h-1v-1h-1v-1h-1zm7 6-4 7 17 12 5-7 4-6-18-13zm18 12-5 7 16 12 5-6 5-6-17-13zm16 13-4 7h1v1h2l2 2h1l1 1q1 1 0 0l1 1 4-7 4-7-2-1-1-1h-1v-1h-1l-1-1-1-1zm8 5v-8h-16v16h16zm-16 0v-8h-41v16h41zm-41 0v-8h-56v16h56zm-56 0v-8h-62v16h62zm-62 0v-8h-57v16h57zm-57 0v-8h-41v16h41zm-41 0v-8h-15v16h15zm-15 0 4 6h1l1-1 2-1 3-2-4-7-5-7v1h-1l-1 1-1 1-2 1-1 1h-1zm7-5 4 6 18-12-5-7-5-6-17 13zm17-13 5 7 17-13-4-6-5-7-18 13zm18-12 4 6 2-1 1-1h1l1-1 1-1h1v-1h1q-1 0 0 0l-5-7-4-6h-1l-1 1-1 1h-1v1h-1q1-1 0 0l-1 1-2 1zm7-6-7-3q0 1 0 0v1h-1v1q0 1 0 0v1h-1q0 1 0 0v2l-1 2-1 1v1q0-1 0 0l7 3 7 4 1-2 1-2 1-1v-1l1-1v-2h1zm-4 9-7-3-9 23 7 3 7 3 10-23zm-9 23-7-4-12 26 8 4 7 3 11-26zm-11 26-8-4-9 23 7 3 7 3 10-22zm-10 22-7-3-1 1q0 1 0 0v2q0-1 0 0h-1q1 0 0 0v1l-1 3-1 2 8 3 7 3v-1l1-1v-2h1v-2l1-1v-2zm-3 9-8-3q-12 27-24 38l6 6 5 6q15-15 28-44zm-26 41-6-6q-10 10-35 10v16q29 0 46-14zm157-353-7-3-1 1v1h-1v2l-1 1-1 3-1 2 7 3 7 4h1v-1q0-1 0 0l1-2v-1l1-1v-2h1q-1 0 0 0v-2h1v-2zm-5 10-7-3-11 28 7 3 7 3 12-28zm-11 28-7-3-16 38 7 3 7 3 16-38zm-16 38-7-3-18 41 7 4 8 3 17-42zm-18 42-7-3-15 38 7 3 7 3 16-39zm-15 38-7-3-12 27 7 3 7 4 12-28zm-12 27-7-3-3 8-1 1v2q-1 0 0 0h-1l8 3 7 3q0-1 0 0 0-1 0 0v-1q1 0 0 0h1v-1q0-1 0 0v-1q0 1 0 0h1q-1 0 0 0 0-1 0 0v-1q0 1 0 0v-1q1-1 0 0v-1h1v-2h1v-3h1zm-4 11 7-4v-1h-1v-1l-1-1v-1l-1-1-2-4-7 4-7 4 4 7 1 1v1zm-5-9 7-4-10-16-7 4-7 4 10 16zm-10-16 7-4-2-4-2-3v-1l-1-1-7 4-7 4 1 1 1 1 2 5 1 2zm-5-9v8h15v-16h-15zm15 0v8h38v-16h-38zm38 0v8h49v-16h-49zm49 0v8h50v-16h-50zm50 0v8h37v-16h-37zm37 0v8h15v-16h-15zm15 0-7-4v1l-1 1v1h-1l-1 2-1 2v1h-1v1l7 4 7 4 1-1v-1l1-1v-1l1-1 1-2v-1h1q0-1 0 0v-1zm-5 9-7-4-10 16 7 4 7 4 10-16zm-10 16-7-4v2q0-1 0 0-1 0 0 0h-1q0 1 0 0v2h-1q1 0 0 0 0 1 0 0 0 1 0 0 0 1 0 0v1q0-1 0 0h-1q1 1 0 0v1q0-1 0 0 0-1 0 0 0-1 0 0v1q0-1 0 0l-1 1v1l6 4 7 4 1-1 1-1v-1q0 1 0 0v-1q1 0 0 0h1q-1-1 0 0 0-1 0 0v-1q0 1 0 0v-1h1v-1q1 0 0 0h1q-1 0 0 0v-2zm-5 9 8-4h-1q0-1 0 0v-2q-1 1 0 0h-1v-2l-1-1-1-2v-1l-1-1v-1l-7 3-8 4 4 8 1 2zm-4-11 7-3-12-27-7 3-8 3 12 27zm-12-27 7-3-15-38-8 3-7 2 15 39zm-16-38 8-3-18-42-7 3-8 3 18 41zm-17-42 7-3-16-38-7 3-8 4 16 37zm-16-38 7-3-12-28-7 3-8 4 12 27zm-12-28 7-3v-1h-1v-3h-1v-2h-1v-3h-1v-1l-7 3-8 3v1h1v1l1 4h1v2l1 2zm-4-10v-8h-1v16h1zm-1 0v-8h-1zv8h1zm334-124 6 6v-1zm76-8-5 6zm28 28 6-5zm9 12-6 4v1zm25 31-6 5zm36 44-6 5zm40 51-6 5zm42 51 6-5zm35 45-7 5h1zm25 32-6 4v1zm10 11v8h17l-11-13zm-20 0h-8v8h8zm16-298 5 6zm88 0-6 6zm1 475 6 5zm-104-21 6-5zm-10-11-6 5zm-25-32-7 5h1zm-35-45-6 5zm-41-51-7 5zm-41-51-6 5zm-36-45-6 5zm-25-31-6 5zm-9-12v-8h-16l10 13zm20 0h8v-8h-8zm-60 314v-8q-28 0-39-13-13-12-13-40h-16q0 33 17 52 19 17 51 17zm-60-61h8v-16h-16v16zm0-16h8v-43h-16v43zm0-43h8v-61h-16v61zm0-61h8v-70h-16v70zm0-70h8v-70h-16v70zm0-70h8v-62h-16v62zm0-62h8v-43h-16v43zm0-43h8v-16h-16v16zm0-16h8q1-29 13-41l-6-6-6-6a73 73 0 0 0-17 53zm15-47 6 5q13-14 35-14v-16q-29 0-47 20zm41-17v8q21 0 30 7l5-6 4-7q-15-10-39-10zm35 9-5 6q11 8 27 27l6-5 6-5q-15-21-30-30zm28 28-7 4v1h1v1h1v1h1v1h1v2h1v1h1v1h1v2h1v1h1v1h1l6-4 6-5v-1h-1v-2h-1v-1h-1v-1h-1v-2h-1v-1h-1v-1h-1v-2h-1v-1h-1zm9 12-6 5 25 31 6-5 6-5-25-32zm25 31-6 5 36 44 6-5 6-5-36-44zm36 44-6 5 40 51 6-5 7-5-41-51zm40 51-6 5 41 51 7-5 6-5-41-51zm42 51-7 5 35 45 7-5 6-5-35-45zm35 45-6 5 25 31 6-4 6-5-25-32zm25 32-6 5 1 1 1 1 1 1v1l1 1 2 2 1 1 1 1 1 1v1h1l6-5 6-5v-1h-1v-1h-1l-1-1-1-2h-1v-1l-1-1-1-1v-1h-1v-1h-1l-1-2zm10 11v-8h-5v16h5zm-5 0v-8h-10v16h10zm-10 0v-8h-5v16h5zm-5 0h8v-13h-16v13zm0-13h8v-37h-16v37zm0-37h8v-50h-16v50zm0-50h8v-53h-16v53zm0-53h8v-50h-16v50zm0-50h8v-37h-16v37zm0-37h8v-14h-16v14zm0-14h8q1-26 13-38l-5-6-6-5a68 68 0 0 0-18 49zm16-44 5 6q13-14 39-14v-16q-32 0-50 19zm44-16v8q26 0 38 14l6-6 5-5a66 66 0 0 0-49-19zm44 16-6 6q13 12 13 38h16q1-30-18-49zm15 44h-8v17h16v-17zm0 17h-8v44h16v-44zm0 44h-8v62h16v-62zm0 62h-8v71h16v-71zm0 71h-8v72h16v-72zm0 72h-8v62h16v-62zm0 62h-8v44h16v-44zm0 44h-8v16h16v-16zm0 16h-8q0 24-12 38l6 5 6 5q16-19 16-48zm-14 43-6-5q-11 12-32 12v16q27 0 44-18zm-38 15v-8q-22 0-33-7l-4 7-4 7q17 9 41 9zm-37-8 4-7q-11-7-27-26l-6 5-6 5q16 19 31 30zm-29-28 6-5v-1q0 1 0 0h-1l-1-1-1-1-1-2-1-1-1-1-4-5-6 6-6 5 1 1 1 2 2 2 1 1h1v1l1 1 1 1v1h1v1h1zm-10-11 6-5-25-32-6 5-6 5 25 32zm-25-32 6-5-35-45-6 5-6 5 34 45zm-35-45 6-5-41-51-6 5-7 5 42 51zm-41-51 6-5-41-51-6 5-6 5 40 51zm-41-51 6-5-36-45-6 5-6 5 36 45zm-36-45 7-4-26-32-6 5-6 5 25 31zm-25-31 6-5v-1h-1v-1h-1v-2h-1v-1h-1v-1h-1v-2h-1v-1h-1v-1h-1v-2h-1l-6 5-6 5v1h1v1h1v2h1v1h1v1h1v2h1v1h1v1h1v2h1zm-9-12v8h5v-16h-5zm5 0v8h10v-16h-10zm10 0v8h5v-16h-5zm5 0h-8v14h16v-14zm0 14h-8v36h16v-36zm0 36h-8v50h16v-50zm0 50h-8v54h16v-54zm0 54h-8v50h16v-50zm0 50h-8v36h16v-36zm0 36h-8v13h16v-13zm0 13h-8q-1 29-13 40-11 13-39 13v16q32 0 50-17 18-19 18-52zm392 39 7-5zm0-56 7 3zm7-15-7-4zm20-43 8 3zm28-60 8 3zm32-70-7-3zm32-68 7 3zm28-60 7 3zm20-43-8-4zm7-16 8 3zm31-40-4-7zm85 0 4-7zm31 40 7-3v-1zm7 16-8 3h1zm20 43-7 3zm28 60-7 3zm31 68-7 4zm33 70-8 3zm28 60-8 3zm19 43-7 3zm8 15 7-3v-1zm1 57-6-5zm-89 9-5 6zm-27-41 8-3h-1zm-4-9-7 3zm-9-22-7 3v1zm-11-26-8 3zm-10-23-8 3h1v1zm-4-9 5-6-23-19 11 28zm7 6-5 6h1v1zm18 12-5 7zm17 13-5 6v1zm7 5v8h28l-23-15zm-288 0-5-7-20 15h25zm7-5 5 7v-1zm17-13 5 7zm18-12 5 6zm8-6 7 4 13-28-25 18zm-5 9-7-3zm-9 23 8 3zm-11 26 8 3zm-10 22-7-3zm-3 9 7 3zm-26 41-6-6zm157-353v-8h-5l-2 5zm-4 10-8-3zm-12 28 8 3zm-16 38-7-3zm-17 42-8-4v1zm-16 38 8 3zm-12 27-7-3zm-4 11-7 4 9 14 6-15zm-5-9-7 4zm-9-16 6-4zm-5-9v-8h-14l7 12zm203 0 7 4 7-12h-14zm-5 9 7 4zm-9 16 7 4zm-5 9-7 3 6 14 8-13zm-5-11-8 3h1v1zm-12-27-7 3zm-15-38-8 2zm-18-42-7 3zm-16-38-7 3v1zm-12-28-7 3v1zm-4-10 7-3-2-5h-5zm-200 365v-8q-29 0-41-19l-7 5-7 4q19 27 55 26zm-48-22 7-5q-13-16 0-48l-7-3-7-3q-17 35 0 63zm0-56 7 3h1v-2h1v-2h1v-3h1v-2h1v-2h1v-2h1v-2l-7-3-7-4v1h-1v2h-1v2h-1v2h-1v3h-1v2h-1v2h-1v2zm7-15 7 3 21-43-8-3-7-4-20 43zm20-43 8 3 28-60-8-3-7-4-28 60zm28-60 8 3 31-69-7-4-7-3-32 69zm32-70 7 4 32-69-7-3-7-4-32 69zm32-68 7 3 28-60-7-3-7-4-28 60zm28-60 7 3 20-43-7-3-8-4-19 43zm20-43 7 3 1-2v-1l1-1v-1h1v-2l1-1v-1l1-1v-1l1-1 1-2v-2h1l-8-3-7-4v2h-1v1q0-1 0 0v1h-1v2h-1v2l-1 1v1h-1v2h-1v1l-1 1v2h-1zm7-16 8 3q12-25 28-37l-5-6-4-7q-21 15-34 43zm31-40 5 6q17-11 38-11v-16q-26 0-47 14zm43-13v8q22 0 37 11l5-6 4-7q-20-14-46-14zm42 13-5 6q16 12 28 37l8-3 7-4q-13-28-34-43zm31 40-8 3h1v2q0 1 0 0l1 1v1l1 1v1l1 3 1 1v1l1 1q-1 0 0 0v1l1 1v2l8-3 7-3v-1l-1-1v-2h-1v-2l-1-1-2-5-2-4zm7 16-7 3 20 43 7-3 7-4-20-43zm20 43-7 3 28 60 7-3 7-4-28-60zm28 60-7 3 31 69 7-4 8-3-32-69zm31 68-7 4 32 69 8-3 7-4-32-69zm33 70-8 3 28 60 8-3 7-4-28-60zm28 60-8 3 20 43 7-3 8-4-20-43zm19 43-7 3q0 1 0 0v1h1q-1 1 0 0 0 1 0 0v1q0 1 0 0 0 1 0 0v1h1q-1 0 0 0v1l2 3q-1 0 0 0-1 1 0 0v1q0-1 0 0v1h1q-1 0 0 0-1 0 0 0 0 1 0 0v2l1 1v1h1v2h1l7-3 7-4v-1l-2-3v-1q0 1 0 0h-1q1 0 0 0v-1q0 1 0 0v-1q-1 1 0 0-1 1 0 0h-1v-2q-1 0 0 0h-1v-2h-1q1-1 0 0 0-1 0 0v-1q0 1 0 0v-1h-1q1 0 0 0v-1l-1-1zm8 15-7 3q14 32 2 49l6 5 7 4q18-27-1-64zm1 57-6-5q-11 18-40 18v16q36 0 53-25zm-46 21v-8q-26 0-38-10l-5 6-5 6q18 15 48 14zm-43-12 5-6q-13-11-24-38l-8 3-7 3q12 29 29 44zm-27-41 7-3v-2l-1-1-1-2-1-2v-1l-1-1-7 3-7 3 1 2v2h1l1 3 1 2zm-4-9 7-3-9-22-7 3-7 4 9 21zm-9-22 7-3-11-26-7 3-8 3 12 26zm-11-26 7-3-10-23-7 3-7 4 9 22zm-10-23 7-3v-2h-1v-2h-1v-3h-1v-2l-8 3-7 3v2h1v2h1v3h1v2zm-4-9-5 6v1h2v1h1v1h1v1h1v1h2v1l5-6 5-6v-1h-1v-1h-1v-1h-1v-1h-2v-1h-1v-1h-1zm7 6-4 7 17 12 5-7 5-6-18-13zm18 12-5 7 17 12 5-6 5-6-17-13zm17 13-5 7h1l1 1h1l1 1 1 1h1l1 1h1q0 1 0 0v1l4-7 5-7h-1l-1-1h-1v-1h-1l-1-1h-1v-1l-2-1zm7 5v-8h-16v16h16zm-16 0v-8h-41v16h41zm-41 0v-8h-56v16h56zm-56 0v-8h-62v16h62zm-62 0v-8h-56v16h56zm-56 0v-8h-42v16h42zm-42 0v-8h-15v16h15zm-15 0 5 6 1-1 3-1 3-2-5-7-5-7v1l-1 1h-1l-1 1-2 1-1 1h-1zm7-5 5 6 17-12-5-7-4-6-18 13zm17-13 5 7 18-13-5-6-5-7-17 13zm18-12 5 6 1-1 1-1h1l1-1 1-1h1v-1q1 0 0 0h1l-4-7-5-6-2 1-1 1h-1v1q-1-1 0 0h-1q1 0 0 0l-1 1-2 1zm8-6-8-3q0 1 0 0v2q-1 0 0 0h-1q0 1 0 0v1q0 1 0 0v1h-1v1l-1 2v1h-1v1q0-1 0 0l7 3 8 4 1-2 1-2v-2l1-1 1-2zm-5 9-7-3-9 23 7 3 8 3 9-23zm-9 23-7-4-11 26 7 4 8 3 11-26zm-11 26-7-4-10 23 7 3 8 3 10-22zm-10 22-7-3-1 1q1 0 0 0 0 1 0 0v2q0-1 0 0v1h-1q1 0 0 0l-1 3v2h-1l8 3 7 3 1-1v-1l1-2v-2h1v-1l1-2zm-3 9-7-3q-13 27-25 38l6 6 5 6q16-15 28-44zm-26 41-6-6q-8 10-35 10v16q31 0 46-14zm157-353-7-3v1q-1 0 0 0h-1v2l-1 1-1 1-1 3-1 2 8 3 7 4v-1q0-1 0 0l1-2 1-1v-2h1v-1l1-1q-1 0 0 0v-2h1v-1zm-4 10-8-3-11 28 7 3 8 3 11-28zm-12 28-7-3-16 38 7 3 8 3 16-38zm-16 38-7-3-18 41 8 4 7 3 18-42zm-17 42-8-3-15 38 7 3 8 3 15-39zm-16 38-7-3-12 27 7 3 8 4 12-28zm-12 27-7-3-3 8v1h-1v2l7 3 8 3q0-1 0 0 0-1 0 0v-1q0 1 0 0v-1h1q-1-1 0 0v-1q0 1 0 0v-1q0 1 0 0 1-1 0 0v-1h1q0-1 0 0v-2q1 0 0 0h1v-3h1v-1zm-4 11 7-4v-1l-1-1v-1h-1v-1l-1-1-2-4-7 4-7 4 4 7 1 1v1zm-5-9 7-4-10-16-6 4-7 4 9 16zm-9-16 6-4-3-7-1-1v-1l-7 4-7 4v1l1 1 1 2 1 1 1 2 1 2zm-5-9v8h14v-16h-14zm14 0v8h38v-16h-38zm38 0v8h49v-16h-49zm49 0v8h50v-16h-50zm50 0v8h38v-16h-38zm38 0v8h14v-16h-14zm14 0-7-4v1l-1 2-1 2-1 2h-1v2l6 4 7 4 1-1 1-1v-2h1v-1l1-2h1v-1q0-1 0 0v-1zm-5 9-6-4-10 16 7 4 7 4 9-16zm-9 16-7-4-1 1v1q0-1 0 0-1 1 0 0v1h-1v1q-1 0 0 0-1 1 0 0h-1q1 0 0 0 1 1 0 0 1 1 0 0v1q0-1 0 0v1q0-1 0 0 0-1 0 0 0-1 0 0h-1v1q0-1 0 0v1h-1v1l7 4 7 4v-1l1-1v-1q0 1 0 0h1v-1q0-1 0 0 0-1 0 0v-1q0 1 0 0h1v-1q0 1 0 0v-1h1q-1 0 0 0v-1l1-1zm-5 9 7-4q0-1 0 0v-1h-1v-1q0 1 0 0v-1h-1v-1l-1-3-1-1v-1l-1-1-7 3-7 4 3 8 1 2h1zm-5-11 7-3-12-27-7 3-7 3 11 27zm-12-27 7-3-15-38-7 3-8 2 16 39zm-15-38 7-3-18-42-7 3-7 3 17 41zm-18-42 8-3-17-38-7 3-7 4 16 37zm-16-38 7-3-12-28-7 3-7 4 12 27zm-12-28 8-3h-1v-2l-1-1v-1l-1-1v-2h-1v-2l-1-1-7 3-8 3h1v1l1 1 1 4v1l1 1 1 2zm-4-10v-8h-1zv8h1zm-1 0v-8h-1zv8h1zm336 349 6-6zm0-473-6-6zm95 0 6-6zm-47 489v-8q-28 0-42-14l-6 6-6 5q20 19 54 19zm-48-16 6-6q-15-13-15-43h-16q0 34 19 54zm-17-49h8v-16h-16v16zm0-16h8v-43h-16v43zm0-43h8v-60h-16v60zm0-60h8v-68h-16v68zm0-68h8v-69h-16v69zm0-69h8v-60h-16v60zm0-60h8v-43h-16v43zm0-43h8v-16h-16v16zm0-16h8q0-30 15-43l-6-6-6-6q-19 21-19 55zm17-49 6 6q14-15 42-15v-16q-34 0-54 19zm48-17v8q28 0 42 15l5-6 6-6a72 72 0 0 0-53-19zm47 17-5 6q14 13 14 43h16q0-34-19-55zm17 49h-8v16h16v-16zm0 16h-8v43h16v-43zm0 43h-8v60h16v-60zm0 60h-8v69h16v-69zm0 69h-8v68h16v-68zm0 68h-8v60h16v-60zm0 60h-8v43h16v-43zm0 43h-8v16h16v-16zm0 16h-8q0 30-14 43-13 14-42 14v16q34 0 54-19 18-19 18-54zm96 44-6 6zm0-98 6 6zm101 0-6 6zm0 98-6-5zm-50 19v-8q-30 0-45-16l-6 5-6 6q22 21 57 21zm-51-19 6-5a62 62 0 0 1-16-44h-16q0 32 20 55zm-18-49h8q1-28 16-43l-6-6-5-5a73 73 0 0 0-21 54zm18-49 6 6q15-17 45-17v-16q-35 0-57 22zm51-19v8q30 0 44 17l6-6 6-5a73 73 0 0 0-56-22zm50 19-6 6q16 15 16 43h16q1-33-20-54zm18 49h-8q0 27-16 44l6 5 6 6q21-23 20-55zm-18 49-6-5q-14 16-44 16v16q35 0 56-21zm199 14-2 7zm-77-25-3 7zm-27-24 8-4zm-5-32 8 1zm12-29 6 5v-1zm26-18 2 8zm36 4 4-7h-1zm60 21-1 8zm128-6 4 7zm5-57-5 7zm-45-16-2 7zm-13-3-2 8zm-29-6-1 8zm-28-6-2 8zm-12-3 2-8h-1zm-100-49 6-5zm-7-175-7-5zm73-56 3 7zm183-12-2 8zm65 24-4 7zm26 31-8 2zm-1 37 8 3zm-25 27-3-8zm-45-3-3 7zm-46-14-2 8h1zm-109 9-4-7zm-9 61-5 6zm45 17 2-8zm12 2-2 8zm29 7-2 7zm28 5-2 8zm12 3-1 8zm110 220 6 4zm-73 55 3 7zm-111 20v-8q-42 0-86-9l-2 8-2 7q46 10 90 10zm-88-9 2-8q-45-9-76-24l-3 7-3 7q33 16 78 25zm-77-25 3-7q-16-9-22-21l-8 4-7 3q10 19 31 28zm-27-24 8-4q-7-13-5-27l-8-1-8-1q-3 19 6 36zm-5-32 8 1q1-15 10-25l-6-5-7-5q-11 14-13 33zm12-29 6 4q9-11 22-14l-2-8-2-8q-19 6-31 21zm26-18 2 8q12-5 31 4l3-8 3-7q-22-9-42-4zm36 4-4 8q29 14 63 21l1-8 2-8q-33-7-58-20zm60 21-1 8q34 6 64 6v-16q-28 0-61-6zm63 6v8q47 0 69-13l-4-7-5-7q-14 11-60 11zm65-12 4 7q21-14 22-38h-16q1 14-15 24zm18-31h8q0-20-16-32l-5 6-5 7q10 7 10 19zm-13-26 5-6q-16-12-49-18l-1 8-2 7q32 7 42 16zm-45-16 1-8q-1 0 0 0h-1q1 0 0 0 1-1 0 0v-1h-1q-1 0 0 0h-1q1 0 0 0h-2q1 0 0 0 0-1 0 0 0-1 0 0v-1h-1q1 1 0 0h-1q-1 0 0 0h-1q1 0 0 0h-1q1 0 0 0 1 0 0 0h-1q1-1 0 0v-1q0 1 0 0h-1q1 0 0 0h-1l-2 8-2 8h1q1 0 0 0h1q-1 0 0 0h1q-1 0 0 0h1v1q1-1 0 0h1q1 0 0 0h3q-1 0 0 0h1q-1 1 0 0v1q1 0 0 0 1 0 0 0h1q-1 0 0 0-1 0 0 0h1q-1 0 0 0-1 0 0 0h2q-1 0 0 0zm-13-3 2-8-29-6-2 8-1 8 28 6zm-29-6 2-8-29-6-1 8-2 8 29 6zm-28-6 2-8h-1q1 0 0 0h-1q1 0 0 0h-1q1-1 0 0 0-1 0 0v-1q-1 1 0 0-1 1 0 0h-1q1 0 0 0 1 0 0 0h-1q-1 0 0 0-1 0 0 0-1 0 0 0h-1q1 0 0 0h-1l-1-1q1 0 0 0h-1q-1 0 0 0h-1q1 0 0 0h-1q1 0 0 0l-1-1q1 1 0 0 0 1 0 0 0 1 0 0l-2 8-2 8h2q1 0 0 0h1v1q-1-1 0 0l9 2zm-12-3 1-8q-65-14-95-46l-6 5-6 6q35 37 104 51zm-100-49 6-5q-31-33-31-85h-16q0 58 35 96zm-33-90h8q0-47 24-80l-6-5-7-5q-27 39-27 90zm26-85 6 5q25-34 70-54l-3-7-3-7q-48 20-77 58zm73-56 3 7q46-19 106-19v-16q-63 0-112 21zm109-20v8q36 0 72 8l2-8 2-8q-39-8-76-8zm74 8-2 8q36 8 63 23l4-7 4-7q-30-16-67-25zm65 24-4 7q18 10 22 26l8-2 8-2q-7-24-30-36zm26 31-8 2q6 17 0 32l7 3 8 3q8-21 0-43zm-1 37-7-3q-6 15-21 22l3 8 3 7q21-10 30-31zm-25 27-3-8q-14 7-39-3l-3 8-3 7q29 13 51 3zm-45-3 3-8q-21-9-48-13l-1 7-1 8q24 4 44 13zm-46-14 2-7q-25-6-51-5v16q24 0 47 4zm-49-4v-8q-41 0-64 14l4 7 4 7q18-12 56-12zm-60 13-4-7a49 49 0 0 0-25 43h16q-1-18 17-29zm-21 36h-8q0 19 15 31l5-6 5-7q-9-7-9-18zm12 25-5 6q16 12 48 18l2-7 2-8q-31-7-42-16zm45 17-2 7h1v1h1q-1 0 0 0h2q-1 0 0 0h1q1 1 0 0l1 1h3l3 1 2-8 2-7-1-1h-3v-1h-3l-2-1h-3zm12 2-2 8 29 6 2-7 1-8-28-7zm29 7-2 7 28 6 2-8 2-8-29-5zm28 5-2 8h2v1h5l1 1h2l2 1h1l1-8 2-8h-2l-1-1h-2q-1 0 0 0h-2q-1-1 0 0v-1h-3q1 0 0 0h-1l-1-1zm12 3-1 8q66 14 97 46l6-6 6-5q-36-36-106-51zm102 48-6 6q31 31 31 82h16q1-57-35-93zm33 88h-8q0 45-24 79l7 5 6 4q27-38 27-88zm-25 84-7-5q-24 34-69 53l3 7 3 7q48-19 76-58zm-73 55-3-7q-45 19-108 19v16q64 0 114-21zm186 2 5-6zm0-473-6-6zm95 0 5-6zm17 180h-8v8h8zm203 0v8h8v-8zm17-180-6-6zm-17 286h8v-8h-8zm-203 0v-8h-8v8zm-65 203v-8q-28 0-42-14l-5 6-6 5q20 19 53 19zm-47-16 5-6q-14-13-14-43h-16q0 34 19 54zm-17-49h8v-16h-16v16zm0-16h8v-43h-16v43zm0-43h8v-60h-16v60zm0-60h8v-68h-16v68zm0-68h8v-69h-16v69zm0-69h8v-60h-16v60zm0-60h8v-43h-16v43zm0-43h8v-16h-16v16zm0-16h8q0-30 14-43l-5-6-6-6q-19 21-19 55zm17-49 5 6q14-15 42-15v-16q-33 0-53 19zm47-17v8q29 0 42 15l6-6 5-6a72 72 0 0 0-53-19zm48 17-6 6q14 13 15 43h16q1-34-20-55zm17 49h-8v10h16v-10zm0 10h-8v24h16v-24zm0 24h-8v32h16v-32zm0 32h-8v31h16v-31zm0 31h-8v25h16v-25zm0 25h-8v9h16v-9zm0 9v8h11v-16h-11zm11 0v8h28v-16h-28zm28 0v8h40v-16h-40zm40 0v8h44v-16h-44zm44 0v8h40v-16h-40zm40 0v8h29v-16h-29zm29 0v8h11v-16h-11zm11 0h8v-9h-16v9zm0-9h8v-25h-16v25zm0-25h8v-31h-16v31zm0-31h8v-32h-16v32zm0-32h8v-24h-16v24zm0-24h8v-10h-16v10zm0-10h8q0-30 15-43l-6-6-6-6q-19 21-19 55zm17-49 6 6q14-15 42-15v-16q-33 0-54 19zm48-17v8q29 0 42 14 12 13 13 44h16q1-35-18-55-19-19-53-19zm63 66h-8v16h16v-16zm0 16h-8v43h16v-43zm0 43h-8v60h16v-60zm0 60h-8v69h16v-69zm0 69h-8v68h16v-68zm0 68h-8v60h16v-60zm0 60h-8v43h16v-43zm0 43h-8v16h16v-16zm0 16h-8q-1 30-13 43-13 14-42 14v16q34 0 53-19t18-54zm-63 65v-8q-30 0-43-14-14-13-14-43h-16q0 35 19 54t54 19zm-65-65h8v-10h-16v10zm0-10h8v-25h-16v25zm0-25h8v-34h-16v34zm0-34h8v-34h-16v34zm0-34h8v-26h-16v26zm0-26h8v-9h-16v9zm0-9v-8h-11v16h11zm-11 0v-8h-29v16h29zm-29 0v-8h-40v16h40zm-40 0v-8h-44v16h44zm-44 0v-8h-40v16h40zm-40 0v-8h-28v16h28zm-28 0v-8h-11v16h11zm-11 0h-8v9h16v-9zm0 9h-8v26h16v-26zm0 26h-8v34h16v-34zm0 34h-8v34h16v-34zm0 34h-8v25h16v-25zm0 25h-8v10h16v-10zm0 10h-8q-1 30-14 43-13 14-43 14v16q35 0 54-19t19-54z" mask="url(#b)"/><path fill="#eef2f7" d="M408 685q-30 0-47-16-18-18-17-50V427l3 11 10 25 13 35-9-13-23-33-66-95-63-91q-12-18-10-37 2-20 17-35t43-15q20 0 36 10 16 9 30 32l7 10 18 27 73 107h-25l7-11 42-61 23-35 19-28 7-10q14-23 30-32 15-9 36-9 27 0 41 14 15 13 16 33 2 20-13 41l-9 13a2644 2644 0 0 1-88 127l-54 78-8 13 3-11 18-49 5-11v192q0 66-65 66m255 0q-33 0-48-22-16-23 0-56l7-15a13351 13351 0 0 0 159-344l8-16q13-28 31-40 18-13 43-13 23 0 42 13 18 13 30 40l28 59 59 128 88 188q16 34 1 57-14 21-46 21-28 0-44-12-14-13-26-41l-4-9-9-22-12-26-13-32 41 31 8 5H718l7-5 42-31-4 9-30 71-3 9q-14 28-26 41-14 12-41 12m198-365-5 10-11 28-34 80-15 38-12 27-4 11-5-9-10-16-5-9h204l-5 9-10 16-5 9-4-11-12-27-16-38-33-80-12-28-4-10zm380 365q-60 0-60-61V243q0-31 15-47 15-17 41-17 22 0 35 9 13 8 28 28l34 43a4251 4251 0 0 1 118 146l60 77 10 11h-20V239q0-28 16-44 14-15 44-16 28 0 44 16 15 16 15 44v388q0 27-14 43-14 15-38 15t-37-8-29-28l-10-11-25-32-76-96-102-127-9-12h20v253q0 61-60 61m500 0q-33 0-48-22-15-23 0-56l7-15a11974 11974 0 0 0 160-344l7-16q13-28 31-40 19-13 43-13t42 13 31 40l27 59 59 128 88 188q16 34 1 57-13 21-46 21-28 0-43-12-15-13-27-41l-4-9-20-48-14-32 42 31 7 5h-288l7-5 35-25 8-6-5 9-30 71-3 9q-13 28-26 41-13 12-41 12m198-365-4 10-12 28-33 80-16 38-12 27-4 11-5-9-9-16-5-9h203l-5 9-14 25-5-11-12-27-15-38-34-80-12-28-4-10zm385 365q-31 0-48-16-17-18-17-49V245q0-32 17-49t48-17 47 17 17 49v375q0 65-64 65m211-2q-33 0-51-19a70 70 0 0 1-18-49q0-30 18-49 18-18 51-19 33 0 50 19 18 19 18 49t-18 49q-17 19-50 19m337 4a449 449 0 0 1-165-34q-19-9-27-24-8-16-5-32 2-17 12-29 9-13 26-18 15-5 36 4 27 13 60 21 34 6 63 6 46 0 65-12 18-12 18-31 0-15-13-26-12-10-45-16l-13-3-29-6-28-6-12-3q-67-14-100-49-33-34-33-90 0-49 26-85t73-56 109-20a332 332 0 0 1 139 32q21 11 26 31 6 19-1 37t-25 27-45-3q-21-9-46-14-24-4-49-4-39 0-60 13-21 14-21 36 0 15 12 25 14 9 45 17l81 17q68 15 102 48 33 34 33 88 0 48-25 84-27 36-73 55-47 20-111 20m344-2q-30 0-47-16-17-18-17-49V245q0-32 17-49t47-17q32 0 48 17 17 17 17 49v131h203V245q0-32 17-49t48-17q63 0 63 66v375q0 65-63 65-65 0-65-65V482h-203v138q0 65-65 65"/></svg>